<?xml version="1.0" encoding="UTF-8"?>
<svg version="1.2" baseProfile="tiny-ps" xmlns="http://www.w3.org/2000/svg" viewBox="0 0 512 512" width="512" height="512">
  <title>Remail</title>
  <desc>Remail brand mark for BIMI.</desc>
  <defs>
    <linearGradient id="bg" x1="96" y1="32" x2="416" y2="480" gradientUnits="userSpaceOnUse">
      <stop offset="0" stop-color="#ff8a1f"/>
      <stop offset="0.48" stop-color="#ff573d"/>
      <stop offset="1" stop-color="#f0226f"/>
    </linearGradient>
    <linearGradient id="line" x1="158" y1="309" x2="354" y2="309" gradientUnits="userSpaceOnUse">
      <stop offset="0" stop-color="#ff2d64"/>
      <stop offset="1" stop-color="#ff4b63"/>
    </linearGradient>
  </defs>
  <rect width="512" height="512" fill="#f0226f"/>
  <rect x="38" y="38" width="436" height="436" rx="88" fill="url(#bg)"/>
  <path fill="#070707" d="M159 300c0-31 19-57 46-79 22-18 47-35 58-61 7-17 6-36-3-59 33 15 55 43 58 77 2 22-6 42-20 59 21-9 34-24 40-47 23 19 35 44 35 73 0 24-9 43-26 58h-19l-72 54-73-54h-24v-21Z"/>
  <path fill="#070707" d="M159 317h28l69 51 68-51h29v44c0 44-22 67-66 67h-62c-44 0-66-23-66-67v-44Z"/>
  <path fill="url(#line)" d="M162 307h33l61 45 61-45h33l-94 70-94-70Z"/>
  <path fill="#ff4a61" d="M311 235c25-11 39-29 42-55 10 13 15 27 15 43 0 26-15 47-42 62h-26c11-13 15-30 11-50Z"/>
</svg>
